<svg aria-hidden="true" style="position: absolute; width: 0; height: 0; overflow: hidden;" version="1.1" xmlns="http://www.w3.org/2000/svg" xmlns:xlink="http://www.w3.org/1999/xlink">
<defs>
<symbol id="icon-help-circle" viewBox="0 0 32 32">
<path fill="none" stroke="#a0a0ab" style="stroke: var(--color1, #a0a0ab)" stroke-linejoin="round" stroke-linecap="round" stroke-miterlimit="4" stroke-width="2.6" d="M12.12 12c0.313-0.891 0.932-1.643 1.747-2.121s1.772-0.654 2.703-0.494c0.931 0.16 1.776 0.644 2.384 1.366s0.941 1.637 0.94 2.582c0 2.667-4 4-4 4M16 22.667h0.013M29.333 16c0 7.364-5.969 13.333-13.333 13.333s-13.333-5.969-13.333-13.333c0-7.364 5.97-13.333 13.333-13.333s13.333 5.97 13.333 13.333z"></path>
</symbol>
<symbol id="icon-info-circle" viewBox="0 0 32 32">
<path fill="none" stroke="#a0a0ab" style="stroke: var(--color1, #a0a0ab)" stroke-linejoin="round" stroke-linecap="round" stroke-miterlimit="4" stroke-width="3.4667" d="M16 21.333v-5.333M16 10.667h0.013M29.333 16c0 7.364-5.97 13.333-13.333 13.333s-13.333-5.97-13.333-13.333c0-7.364 5.97-13.333 13.333-13.333s13.333 5.97 13.333 13.333z"></path>
</symbol>
<symbol id="icon-search-lg" viewBox="0 0 32 32">
<path fill="none" stroke="#a0a0ab" style="stroke: var(--color1, #a0a0ab)" stroke-linejoin="round" stroke-linecap="round" stroke-miterlimit="4" stroke-width="3" d="M28 28l-4.667-4.667M26.667 15.333c0 6.259-5.074 11.333-11.333 11.333s-11.333-5.074-11.333-11.333c0-6.259 5.074-11.333 11.333-11.333s11.333 5.074 11.333 11.333z"></path>
</symbol>
</defs>
</svg>
